# xmcd
#
# Track frame offsets:
#	150
#	12895
#	25348
#	40456
#	58471
#	78516
#	88826
#	107985
#	124687
#	138741
#	155478
#	167793
#	181262
#	195785
#
# Disc length: 3293 seconds
#
# Revision: 1
# Processed by: cddbd v1.5.2PL0 Copyright (c) Steve Scherf et al.
# Submitted via: audiograbber 1.83.01
#
DISCID=bf0cdb0e
DTITLE=The Accolade - Still In The Cities
DYEAR=2006
DGENRE=Country
TTITLE0=The Burma Shore
TTITLE1=Union Street
TTITLE2=Losers' Law
TTITLE3=We'll Sing The Whole Night Through
TTITLE4=Money Tree
TTITLE5=Coffee
TTITLE6=The Last Dance
TTITLE7=Take My Hand
TTITLE8=Run On Home
TTITLE9=Empty Snack Shop Ordeal
TTITLE10=Gladder
TTITLE11=She Ain't Evil
TTITLE12=North East Again
TTITLE13=Four Quartets
EXTD=
EXTT0=
EXTT1=
EXTT2=
EXTT3=
EXTT4=
EXTT5=
EXTT6=
EXTT7=
EXTT8=
EXTT9=
EXTT10=
EXTT11=
EXTT12=
EXTT13=
PLAYORDER=
